<svg width="337" height="113" viewBox="0 0 337 113" fill="none" xmlns="http://www.w3.org/2000/svg">
<g id="Name=Cabify, Color=Inverted">
<g id="Shape">
<path fill-rule="evenodd" clip-rule="evenodd" d="M140.415 56.1662V1.00297H154.457V29.6264C159.601 26.1207 165.816 24.0712 172.51 24.0712C190.236 24.0712 204.605 38.4406 204.605 56.1662C204.605 73.8917 190.236 88.2612 172.51 88.2612C154.785 88.2612 140.415 73.8917 140.415 56.1662ZM172.51 74.2196C162.54 74.2196 154.457 66.1368 154.457 56.1662C154.457 46.1956 162.54 38.1128 172.51 38.1128C182.481 38.1128 190.564 46.1956 190.564 56.1662C190.564 66.1368 182.481 74.2196 172.51 74.2196Z" fill="white"/>
<path fill-rule="evenodd" clip-rule="evenodd" d="M119.353 82.706V87.2582H133.395V56.1662C133.395 38.4406 119.025 24.0712 101.3 24.0712C83.5742 24.0712 69.2048 38.4406 69.2048 56.1662C69.2048 73.8917 83.5742 88.2612 101.3 88.2612C107.994 88.2612 114.209 86.2117 119.353 82.706ZM83.2463 56.1662C83.2463 46.1956 91.3291 38.1128 101.3 38.1128C111.27 38.1128 119.353 46.1956 119.353 56.1662C119.353 66.1368 111.27 74.2196 101.3 74.2196C91.3291 74.2196 83.2463 66.1368 83.2463 56.1662Z" fill="white"/>
<path d="M32.095 38.1128C22.1243 38.1128 14.0415 46.1956 14.0415 56.1662C14.0415 66.1368 22.1243 74.2196 32.095 74.2196C39.5754 74.2196 45.9932 69.67 48.7324 63.187H63.4197C60.2178 77.5358 47.4089 88.2612 32.095 88.2612C14.3694 88.2612 0 73.8917 0 56.1662C0 38.4406 14.3694 24.0712 32.095 24.0712C47.4089 24.0712 60.2178 34.7966 63.4197 49.1454H48.7324C45.9932 42.6623 39.5754 38.1128 32.095 38.1128Z" fill="white"/>
<path d="M212.629 25.0742V87.2582H226.671V25.0742H212.629Z" fill="white"/>
<path d="M277.585 2.07546C274.593 0.741513 271.28 0 267.792 0C254.498 0 243.721 10.7771 243.721 24.0712V25.0769L234.694 25.0776V39.1192H243.721V87.2582H257.763V39.1192H275.816L295.596 83.5459L291.683 92.3359C289.43 97.3963 283.501 99.6721 278.441 97.4191L272.73 110.247C284.874 115.654 299.103 110.192 304.51 98.0471L337 25.0742H321.63L303.281 66.2848L288.644 33.4081C286.317 28.182 281.19 25.0773 275.816 25.0742L257.763 25.0757V24.0712C257.763 18.532 262.253 14.0415 267.792 14.0415C269.245 14.0415 270.626 14.3505 271.873 14.9062L277.585 2.07546Z" fill="white"/>
<path d="M227.674 8.02374C227.674 12.4551 224.081 16.0475 219.65 16.0475C215.219 16.0475 211.626 12.4551 211.626 8.02374C211.626 3.59235 215.219 0 219.65 0C224.081 0 227.674 3.59235 227.674 8.02374Z" fill="white"/>
</g>
</g>
</svg>
