<svg xmlns="http://www.w3.org/2000/svg" width="113" height="117" fill="none"><path fill="#111110" d="M23.5 116.903c-2.4 0-4.6-.4-6.7-1.3-3.4-1.4-6.1-4-7.9-7.5-1.5-3-2.3-6.6-2.3-10.8v-16.4l-6.6 1.2.1-26.7 6.6-1.2.1-20.8c.1-5.8 1.5-10.6 4.4-14.2 3-3.9 7.5-6.4 13.5-7.4l60.2-10.6c1.3-.2 2.5-.3 3.6-.3 2.4 0 4.6.4 6.7 1.3 3.4 1.4 6.1 4 7.9 7.5 1.5 3 2.3 6.6 2.3 10.8v16.4l6.5-1.1.2 26.7-6.6 1.2-.1 20.8c-.1 5.8-1.5 10.6-4.4 14.2-3 3.9-7.6 6.4-13.5 7.4l-60.3 10.6c-1.4.1-2.6.2-3.7.2Z"/><path fill="#fff" d="m75.8 42.203.1-14.3-39.9 7-.2 56.2 16.6-2.9v-18l20.4-3.6.1-14.3-20.4 3.6v-9.6l23.3-4.1Z"/><path fill="#FFD203" d="m104 45.103-2.9.5c-1.1.2-2 0-2.6-.7-.7-.6-1-1.8-1-3.5l.1-21c0-2.9-.5-5.3-1.4-7.1-1-1.8-2.3-3.1-4-3.8-1.7-.7-3.7-.9-5.9-.5L26 19.603c-4 .7-6.9 2.2-8.6 4.5-1.8 2.3-2.7 5.4-2.7 9.4l-.1 22.5c0 1.7-.3 3-.9 3.9-.6.9-1.5 1.4-2.8 1.6l-2.9.5v10.7l2.9-.5c1.2-.2 2.1 0 2.7.7.6.7 1 1.8 1 3.5l-.1 21c0 2.9.5 5.3 1.4 7.1 1 1.8 2.3 3.1 4 3.8 1.7.7 3.7.9 5.9.5l60.2-10.6c4-.7 6.9-2.2 8.6-4.5 1.8-2.3 2.7-5.4 2.7-9.4l.1-22.5c0-1.7.3-3 .9-3.9.6-.9 1.5-1.4 2.8-1.6l2.9-.5v-10.7Zm-10.2 10.3c-.8.7-1.4 1.7-1.7 2.8-.3 1.2-.5 2.7-.6 4.7l-.1 21.7c0 2.1-.5 3.9-1.5 5.3s-2.6 2.3-4.8 2.7l-58.5 10.3c-1.8.3-3.3-.1-4.5-1.2-1.2-1.1-1.8-3.2-1.8-6.1l.1-20.2c0-2.5-.5-4.4-1.4-5.5-1-1.1-2.3-1.7-4-1.7v-4.1c1.4-.5 2.5-1.1 3.3-1.8.8-.7 1.4-1.7 1.7-2.8.4-1.2.5-2.7.6-4.6l.1-21.7c0-2.1.5-3.9 1.5-5.3s2.6-2.3 4.8-2.7l58.4-10.3c1.8-.3 3.3.1 4.5 1.2 1.2 1.1 1.8 3.2 1.8 6.1l-.1 20.2c0 2.5.5 4.4 1.4 5.5 1 1.1 2.3 1.7 4 1.7v4.1c-1.3.4-2.4 1-3.2 1.7Z"/></svg>
