<svg xmlns="http://www.w3.org/2000/svg" width="190" height="190" fill="none" viewBox="0 0 190 112"><path fill="#FFD200" d="M110.701 101.182c.791-.953 1.392-1.8091 1.801-2.5687.408-.7596.667-1.4753.777-2.1559.11-.6806.101-1.3655-.018-2.0549-.167-.9352-.553-1.7212-1.159-2.3491-.606-.6279-1.379-1.0757-2.318-1.3304-.936-.259-1.967-.2898-3.091-.0922-1.419.2503-2.644.7904-3.671 1.6246-1.028.8343-1.756 1.8398-2.191 3.0165l3.306 1.629c.303-.6147.676-1.1153 1.12-1.5061.443-.3907.931-.6322 1.462-.7288.606-.1054 1.098-.0396 1.475.1975.378.2372.611.5972.694 1.0714.057.3118.048.6367-.022.9704s-.224.6981-.457 1.0977c-.237.3952-.575.8825-1.027 1.4533l-5.752 7.0647-.018 3.153 12.088-2.13.027-3.995-5.796 1.023 2.77-3.386v-.004ZM127.119 90.1785c-.655-.9001-1.462-1.5368-2.42-1.91-.957-.3732-2.028-.4566-3.209-.2459-1.212.2152-2.27.6982-3.175 1.449-.904.7508-1.633 1.708-2.195 2.8628-.558 1.1592-.918 2.4589-1.076 3.899-.158 1.4446-.097 2.9507.18 4.5316.25 1.414.698 2.573 1.344 3.473.645.904 1.453 1.541 2.419 1.91.966.373 2.037.452 3.223.246 1.212-.215 2.27-.698 3.174-1.449.905-.751 1.634-1.708 2.183-2.863.553-1.155.908-2.4545 1.075-3.899.167-1.4446.11-2.9551-.171-4.5314-.25-1.4138-.702-2.5686-1.357-3.4731h.005Zm-3.069 9.1285c-.15.79-.396 1.462-.743 2.024-.342.562-.803.892-1.378.993-.549.096-1.023-.04-1.432-.409-.408-.369-.702-1.054-.878-2.0547-.123-.6894-.184-1.4578-.189-2.3052-.004-.8474.071-1.6641.22-2.4545.149-.7903.399-1.4621.742-2.0241.342-.5621.803-.8914 1.379-.9924.549-.0966 1.023.0395 1.431.4084.408.3688.703 1.0538.878 2.0549.123.6893.185 1.4577.189 2.3052 0 .8474-.07 1.6641-.219 2.4544ZM139.031 96.1851c.795-.9528 1.392-1.809 1.8-2.5686.409-.7596.668-1.4753.773-2.1559.11-.6806.101-1.3656-.018-2.0549-.166-.9353-.553-1.7212-1.159-2.3491-.606-.6323-1.378-1.0757-2.318-1.3304-.935-.2591-1.967-.2898-3.091-.0922-1.418.2503-2.643.7947-3.671 1.6246-1.027.8342-1.756 1.8397-2.191 3.0165l3.306 1.629c.303-.6148.677-1.1153 1.12-1.5061.443-.3908.931-.6323 1.462-.7289.606-.1053 1.098-.0395 1.475.1976.378.2371.606.5972.694 1.0714.053.3117.049.6366-.022.9703-.07.3338-.224.6982-.456 1.0978-.233.3995-.576.8825-1.023 1.4533l-5.752 7.0645-.018 3.153 12.088-2.13.026-3.9952-5.796 1.023 2.771-3.3853v-.0044ZM156.309 93.9282c-.167-.9352-.518-1.7124-1.063-2.3271-.544-.6148-1.234-1.0407-2.077-1.2734-.25-.0702-.513-.1141-.786-.1449l3.267-4.6762v-3.1482l-11.231 1.9803-.022 3.8946 6.068-1.0713-2.731 3.9122-.014 3.1789 1.884-.3337c.711-.1273 1.251-.0922 1.629.0922.378.1844.606.5181.689.9967.075.4259.031.8123-.127 1.1548-.162.3425-.435.6279-.821.8562-.386.2283-.883.3952-1.488.505-.725.1273-1.467.1317-2.231.0131-.76-.1185-1.462-.36-2.103-.72l-1.427 3.8336c.865.491 1.826.807 2.889.952 1.063.145 2.156.114 3.28-.083 1.449-.255 2.696-.755 3.736-1.497 1.045-.7424 1.805-1.6425 2.279-2.7007.475-1.0582.611-2.1866.4-3.3853v-.0088ZM63.6451 12.6105c-.9835-.4347-2.0812-.5489-3.2931-.3337-1.4577.2546-2.6871.8693-3.6926 1.8397-.5489.5313-1.0143 1.1548-1.3919 1.8617-.123-.1668-.2459-.3293-.382-.4742-.6147-.6498-1.3261-1.0933-2.1252-1.326-.8035-.2327-1.6509-.2723-2.5467-.1142-1.1021.1932-2.1119.6762-3.0252 1.449-.4435.3732-.8343.8211-1.1724 1.3348l.0176-1.7563-5.0451.8913-.0526 17.4096 5.3216-.9397.0264-8.7026c.0131-1.3523.2458-2.3666.7069-3.0472.4566-.6806 1.0889-1.0889 1.8924-1.2338.7465-.1317 1.3348.0571 1.7607.5708.4259.5137.6411 1.3568.6367 2.5379l-.0615 9.0012 5.3217-.9397.0439-8.7728c.0176-1.3304.2503-2.3271.6982-2.9945.4522-.6674 1.0757-1.0714 1.8792-1.2163.7465-.1317 1.3348.0571 1.7607.5708.4259.5137.6411 1.3612.6367 2.5379l-.0307 8.9924 5.3216-.9397v-9.6334c.0176-1.7783-.2678-3.2097-.8518-4.2942-.5884-1.0845-1.3699-1.8442-2.3535-2.2832v.0044ZM74.9646 2.41041c-.6542-.43908-1.4489-.57959-2.3842-.41274-1.0274.18003-1.7958.64984-2.3096 1.40067-.5137.75522-.6849 1.60704-.5181 2.56424.1449.80791.5401 1.45336 1.1899 1.92318.6499.4742 1.4446.62788 2.3799.46542 1.0274-.18002 1.8002-.64984 2.3227-1.40506.5225-.75522.6937-1.64216.5137-2.65644-.1449-.80791-.54-1.4358-1.1987-1.87488l.0044-.00439ZM70.2137 28.2242l5.2954-.9352.0527-17.40521-5.2998.93081-.0483 17.4096ZM89.8056 9.38756c-.5708-.64106-1.2382-1.08014-2.011-1.30846-.9045-.26784-1.9056-.30736-3.0077-.10977-1.1372.20197-2.1647.63227-3.078 1.29968-.9133.66301-1.6729 1.49729-2.2744 2.50279-.6016 1.0055-1.0143 2.1383-1.2338 3.3941-.2196 1.2601-.2064 2.5949.0439 4.0044.2898 1.6422.843 2.977 1.6597 4.0088s1.7695 1.7651 2.8584 2.191c1.0845.4303 2.1735.5489 3.2536.3557 1.1943-.2108 2.2042-.6982 3.0209-1.4622.3908-.3644.7333-.7771 1.0406-1.2294l-.0176 1.6905 5.0451-.8914L95.1799 0l-5.3216.939634-.0396 8.443536-.0131.00439Zm-.0264 8.45234c-.1844.7596-.5049 1.3831-.9703 1.8705-.4611.4873-1.0582.7947-1.7871.9264-.8957.1581-1.6466-.0088-2.2569-.5005-.6059-.4918-.9967-1.2251-1.1679-2.1998-.1669-.9353-.1537-1.7827.0263-2.5423.1844-.7596.5137-1.3919.9967-1.8924.4786-.5006 1.0626-.8123 1.7563-.9353.8958-.1581 1.651.0132 2.2569.5181.6103.5006 1.0011 1.2426 1.1724 2.2174.1668.9352.1537 1.7827-.0264 2.5423v-.0044ZM109.169 12.558c0 1.326-.246 2.349-.746 3.0691-.501.7201-1.199 1.1592-2.095 1.3173-.843.1493-1.475-.0395-1.905-.562-.431-.5226-.637-1.3436-.624-2.4589l.026-9.02312-5.3212.93963-.0396 9.60709c0 1.7739.2942 3.2097.8738 4.3074.5796 1.0977 1.374 1.8617 2.384 2.292 1.01.4303 2.134.5401 3.364.3205 1.119-.1976 2.155-.6849 3.108-1.4621.474-.3864.892-.8474 1.252-1.3875l-.009 1.7958 5.045-.8913.053-17.40957-5.322.93963-.04 8.61034-.004-.0043Z"></path><path fill="#fff" d="m21.3484 96.6947 14.696-2.5906.044-15.9869 18.1428-3.1965.0702-12.7114-18.1735 3.2053.0219-8.5665 20.7378-3.6576.0659-12.707-35.4295 6.2438-.1756 49.9674ZM75.9262 67.8118l18.4678-3.258.0439-12.1318-18.459 3.2536.022-5.853 20.9837-3.7014.0702-12.7114-35.4295 6.2481-.1756 49.9675 36.2374-6.3887.0703-12.7114-21.8575 3.8552.0263-6.5687ZM168.471 20.8167l-.197.0351-49.836 8.7684c-10.248 1.7959-17.199 8.9397-17.322 17.5984-.285 18.3185 21.709 9.0363 21.849 15.9343.035 1.4226-1.458 2.6828-3.535 3.0472l-16.821 2.9506-.246 13.2471 16.962-2.9726c11.838-2.0768 16.922-10.1032 17.089-17.6993.369-19.0474-22.086-9.3964-22.086-16.4656 0-.9923.887-1.8705 2.13-2.0856l24.479-4.3777-.106 36.8346 14.696-2.5906.106-36.8697 12.764-2.2832.07-13.0671.004-.0043Z"></path><path fill="#FFD200" d="M16.6985 111.817c-1.9714.346-3.7146.202-5.225-.435-1.51048-.637-2.68722-1.77-3.53464-3.399-.84743-1.629-1.26895-3.745-1.26895-6.34l.06147-18.6521c-.01317-1.5236-.30296-2.573-.8606-3.1526-.55763-.5796-1.35676-.7772-2.39299-.5928l-2.586188.4567.017563-9.4754 2.586185-.4566c1.13283-.202 1.9627-.685 2.48959-1.4534.52251-.7684.78157-1.9144.76401-3.438l.12294-20.0221c.03074-3.5654.83425-6.3579 2.41056-8.3865 1.57195-2.0285 4.13615-3.3546 7.68395-3.9824l14.1691-2.4984-.0175 5.0845-13.3525 2.3535c-1.9715.3469-3.3941 1.1504-4.2635 2.4062-.8738 1.2558-1.3216 2.8145-1.348 4.685l-.0922 19.3371c-.0044 1.6949-.1712 3.0648-.4961 4.1098-.325 1.045-.8387 1.8837-1.5368 2.516-.70255.6322-1.67292 1.1723-2.91552 1.6158l.01757 3.6268c1.528.0132 2.7223.5225 3.58725 1.528.865 1.0055 1.2909 2.6389 1.2822 4.9001l-.101 17.9848c0 2.595.5225 4.4 1.5631 5.401 1.0406 1.001 2.3754 1.361 4 1.071l73.1993-12.7948-.0176 5.0846-73.9369 12.9222-.0088-.004ZM165.429 85.7264l.017-5.0846 6.815-1.2118c2.019-.3557 3.455-1.1592 4.303-2.4106.847-1.2514 1.282-2.8101 1.308-4.6762l.092-19.3372c.044-1.7563.22-3.1569.518-4.202.299-1.0406.813-1.8792 1.537-2.5159.725-.6367 1.691-1.146 2.894-1.528l-.018-3.6268c-1.528-.0132-2.722-.5225-3.587-1.528-.865-1.0055-1.291-2.6389-1.282-4.9002l.101-17.9847c0-2.595-.523-4.3996-1.563-5.4007-1.041-1.0011-2.376-1.36119-4-1.0714l-47.575 8.3338-.057-5.0714 48.387-8.47429c1.971-.34688 3.714-.20198 5.225.43469 1.51.63667 2.687 1.7695 3.535 3.39849.847 1.62901 1.268 3.74541 1.268 6.34031l-.131 18.6654c.013 1.5236.311 2.5686.895 3.1438.584.5752 1.37.7772 2.354.6015l2.586-.4566.057 9.4622-2.586.4566c-1.133.202-1.963.685-2.49 1.4534-.526.7684-.781 1.9144-.764 3.438l-.123 20.0221c-.035 3.5654-.834 6.3579-2.41 8.3865-1.576 2.0285-4.136 3.3546-7.684 3.9824l-7.627 1.3568.005.0044Z"></path></svg>
