<svg xmlns="http://www.w3.org/2000/svg" xmlns:xlink="http://www.w3.org/1999/xlink" width="64" height="64"><defs><radialGradient xlink:href="#a" id="c" cx="673.8" cy="1118.8" r="646" fx="673.8" fy="1118.8" gradientTransform="matrix(1.007 -.169 .1028 .6113 -712 -508)"/><radialGradient xlink:href="#a" id="b" cx="673.8" cy="1118.8" r="646" fx="673.8" fy="1118.8" gradientTransform="matrix(1.007 -.169 .1028 .6113 -712 -508)"/><linearGradient id="a" gradientUnits="userSpaceOnUse"><stop offset="0" stop-color="#fed576"/><stop offset=".3" stop-color="#f47133"/><stop offset=".6" stop-color="#bc3081"/><stop offset="1" stop-color="#4c63d2"/></linearGradient></defs><path fill="url(#b)" d="M188-196a80 80 0 0 0-24 4l-7 2-7 4-7 4-6 4-6 6-5 5-4 6-4 7-4 7a79 79 0 0 0-6 39 79 79 0 0 0 2 8l2 8 2 7 4 7 4 6 4 7 5 5 6 5 6 5 7 4 7 3 7 3 8 2a79 79 0 0 0 8 1 80 80 0 0 0 8 1l8-1a79 79 0 0 0 8-1l7-2 8-3 7-3 6-4 7-5 5-5 5-5 5-7 4-6 3-7 3-7 2-8 1-8 1-8-1-8a79 79 0 0 0-1-8l-2-8-3-7-3-7-4-7-5-6-5-5-5-6-7-4-6-4-7-4-8-2-7-2-8-1a80 80 0 0 0-8-1zm0 28h5l5 1 5 1 5 2 5 2 4 3 4 3 4 3 3 4 3 4 3 4 2 5a52 52 0 0 1 4 15v5a53 53 0 0 1-2 16l-2 4-2 5-3 4-3 4-3 4-4 3-4 3-4 3-5 2-5 2-5 1-5 1a54 54 0 0 1-5 0 54 54 0 0 1-6 0l-5-1-5-1-5-2-4-2-4-3-5-3-3-3-4-4-3-4-2-4-2-5-2-4-1-5-1-6a54 54 0 0 1 0-5 54 54 0 0 1 0-5l1-6a52 52 0 0 1 1-5l2-4 2-5 2-4 3-4 4-4 3-3 5-3 4-3 4-2a52 52 0 0 1 5-2l5-1 5-1a54 54 0 0 1 6 0zM271-218a19 19 0 0 0-2 0 19 19 0 0 0-2 0 19 19 0 0 0-2 0 19 19 0 0 0-2 1 19 19 0 0 0-1 1 19 19 0 0 0-2 1 19 19 0 0 0-1 1 19 19 0 0 0-2 1 19 19 0 0 0-1 2 19 19 0 0 0-1 1 19 19 0 0 0-1 2 19 19 0 0 0-1 2 19 19 0 0 0 0 2 19 19 0 0 0-1 1 19 19 0 0 0 0 2 19 19 0 0 0 0 2 19 19 0 0 0 0 2 19 19 0 0 0 0 1 19 19 0 0 0 1 2 19 19 0 0 0 0 2 19 19 0 0 0 1 2 19 19 0 0 0 1 1 19 19 0 0 0 1 2 19 19 0 0 0 2 1 19 19 0 0 0 1 2 19 19 0 0 0 2 1 19 19 0 0 0 1 1 19 19 0 0 0 2 0 19 19 0 0 0 2 1 19 19 0 0 0 2 0 19 19 0 0 0 2 1 19 19 0 0 0 1 0 19 19 0 0 0 2 0 19 19 0 0 0 2-1 19 19 0 0 0 1 0 19 19 0 0 0 2-1 19 19 0 0 0 2-1 19 19 0 0 0 2-1 19 19 0 0 0 1-1 19 19 0 0 0 1-1 19 19 0 0 0 2-1 19 19 0 0 0 1-2 19 19 0 0 0 1-2 19 19 0 0 0 1-1 19 19 0 0 0 0-2 19 19 0 0 0 1-2 19 19 0 0 0 0-2 19 19 0 0 0 0-1 19 19 0 0 0 0-2 19 19 0 0 0-1-2 19 19 0 0 0 0-2 19 19 0 0 0-1-2 19 19 0 0 0 0-2 19 19 0 0 0-1-1 19 19 0 0 0-2-2 19 19 0 0 0-1-1 19 19 0 0 0-1-1 19 19 0 0 0-2-1 19 19 0 0 0-2-1 19 19 0 0 0-1-1 19 19 0 0 0-2-1 19 19 0 0 0-2 0 19 19 0 0 0-2 0 19 19 0 0 0-1 0z" transform="matrix(.205 0 0 .205 -6 56)"/><path fill="url(#c)" d="M173-272h-24l-18 1a306 306 0 0 0-21 1 136 136 0 0 0-6 1l-5 1-5 1a82 82 0 0 0-4 1 84 84 0 0 0-23 12 69 69 0 0 0-5 4 99 99 0 0 0-14 15 62 62 0 0 0-2 4l-2 3a67 67 0 0 0-2 4l-3 8a92 92 0 0 0-2 6l-2 7-1 9a204 204 0 0 0-1 10l-1 12v113l1 9 1 8a139 139 0 0 0 0 7l1 5a112 112 0 0 0 2 8 98 98 0 0 0 3 8A88 88 0 0 0 52 7a76 76 0 0 0 6 6l5 5a82 82 0 0 0 7 5 96 96 0 0 0 19 10l7 2 8 1 9 2h11l12 1h113l9-1a146 146 0 0 0 16-2 101 101 0 0 0 4-1l5-2 5-1a100 100 0 0 0 4-2 106 106 0 0 0 11-5 40 40 0 0 0 4-3l4-3 6-6 5-5 4-4a46 46 0 0 0 3-4l2-5 3-6a84 84 0 0 0 3-7 68 68 0 0 0 2-6l1-7 1-8 1-11 1-12v-16l1-18v-19l-1-36v-17l-1-14v-11l-1-7a120 120 0 0 0-1-5 110 110 0 0 0-2-5 102 102 0 0 0-1-5 105 105 0 0 0-12-22 75 75 0 0 0-2-4 74 74 0 0 0-4-3 74 74 0 0 0-3-3l-3-4a76 76 0 0 0-4-2 78 78 0 0 0-4-3 81 81 0 0 0-4-3 86 86 0 0 0-5-2l-6-3a75 75 0 0 0-7-2l-7-2-9-2-11-1h-14l-18-1h-51zm15 27 42 1h15a198 198 0 0 1 17 1 99 99 0 0 1 7 1 78 78 0 0 1 16 6 51 51 0 0 1 5 3 53 53 0 0 1 12 11 47 47 0 0 1 4 5 46 46 0 0 1 2 5l3 5 1 7a98 98 0 0 1 2 7 148 148 0 0 1 2 28v98l-1 10a291 291 0 0 1-1 17 82 82 0 0 1-1 5 63 63 0 0 1-1 4 57 57 0 0 1-1 3 64 64 0 0 1-1 4 89 89 0 0 1-2 4l-1 3a52 52 0 0 1-2 3l-2 3a47 47 0 0 1-2 2 47 47 0 0 1-3 3 48 48 0 0 1-14 10 63 63 0 0 1-3 1 70 70 0 0 1-4 2l-8 2a106 106 0 0 1-9 2h-21l-41 1h-58l-11-1h-8l-7-1-6-1a80 80 0 0 1-5-1 61 61 0 0 1-5-1A53 53 0 0 1 78-5a46 46 0 0 1-3-3l-2-2a45 45 0 0 1-2-3 47 47 0 0 1-2-3l-1-3a55 55 0 0 1-2-3 64 64 0 0 1-3-12l-2-8-1-10v-12l-1-18v-45l1-44 1-15v-8l2-6a91 91 0 0 1 1-5l2-4a47 47 0 0 1 1-4 42 42 0 0 1 7-10l3-3a68 68 0 0 1 5-4 52 52 0 0 1 4-4 44 44 0 0 1 14-6 75 75 0 0 1 6-2 109 109 0 0 1 24-2h16l42-1z" transform="matrix(.205 0 0 .205 -6 56)"/></svg>