<svg xmlns="http://www.w3.org/2000/svg" xmlns:xlink="http://www.w3.org/1999/xlink" width="540.737" height="434.739" viewBox="0 0 143.07 115.025"><defs><linearGradient id="b" x1="0" x2="1" y1="0" y2="0" gradientTransform="scale(-9.70292 9.70292) rotate(65.592 -10.479 -6.477)" gradientUnits="userSpaceOnUse" spreadMethod="pad"><stop offset="0" style="stop-opacity:1;stop-color:#3194a2"/><stop offset="1" style="stop-opacity:1;stop-color:#03707f"/></linearGradient><linearGradient id="a" x1="0" x2="1" y1="0" y2="0" gradientTransform="matrix(4.38075 9.0585 9.0585 -4.38075 74.08 55.316)" gradientUnits="userSpaceOnUse" spreadMethod="pad"><stop offset="0" style="stop-opacity:1;stop-color:#3194a2"/><stop offset="1" style="stop-opacity:1;stop-color:#03707f"/></linearGradient><linearGradient xlink:href="#a" id="c" x1="0" x2="1" y1="0" y2="0" gradientTransform="matrix(4.38075 9.0585 9.0585 -4.38075 74.08 55.316)" gradientUnits="userSpaceOnUse" spreadMethod="pad"/><linearGradient xlink:href="#b" id="d" x1="0" x2="1" y1="0" y2="0" gradientTransform="scale(-9.70292 9.70292) rotate(65.592 -10.479 -6.477)" gradientUnits="userSpaceOnUse" spreadMethod="pad"/></defs><path d="M76.594 75.111 66.165 53.407a.419.419 0 0 1 .378-.6h13.12c.162 0 .308.091.378.237l4.134 8.593a.418.418 0 0 1-.005.376l-6.827 13.11a.413.413 0 0 1-.371.226.413.413 0 0 1-.378-.238" style="fill:url(#c);stroke:none" transform="matrix(2.42517 0 0 -2.42517 -160.36 229.375)"/><path d="m113.897 75.123-6.827-13.11a.422.422 0 0 1-.006-.376l4.136-8.593a.414.414 0 0 1 .377-.237h13.12c.309 0 .512.322.378.6l-10.429 21.704a.413.413 0 0 1-.377.238.414.414 0 0 1-.372-.226" style="fill:url(#d);stroke:none" transform="matrix(2.42517 0 0 -2.42517 -160.36 229.375)"/><path d="M0 0h-14.188a.725.725 0 0 1-.624-.356l-4.983-8.439a.724.724 0 0 0-1.262.027l-11.322 21.155a.723.723 0 0 1-.638.383h-15.095a.724.724 0 0 1-.62-1.098l27.669-45.981a.724.724 0 0 1 1.237-.006L.617-1.104A.725.725 0 0 1 0 0" style="fill:#39b3c2;fill-opacity:1;fill-rule:nonzero;stroke:none" transform="matrix(2.42517 0 0 -2.42517 120.688 30.97)"/></svg>
