<svg width="448" height="112" viewBox="0 0 448 112" fill="none" xmlns="http://www.w3.org/2000/svg">
<path d="M55.684 54.5768C54.2476 53.942 52.6445 53.7753 50.8747 54.0895C48.7459 54.4614 46.9504 55.3591 45.482 56.7762C44.6805 57.5521 44.0008 58.4627 43.4493 59.495C43.2698 59.2514 43.0902 59.0141 42.8914 58.8025C41.9937 57.8535 40.9549 57.2058 39.7879 56.866C38.6144 56.5261 37.3768 56.4684 36.0687 56.6993C34.4592 56.9814 32.9844 57.6868 31.6507 58.8153C31.003 59.3604 30.4323 60.0144 29.9386 60.7647L29.9642 58.1998L22.5965 59.5015L22.5195 84.9263L30.2912 83.554L30.3297 70.8448C30.349 68.8698 30.6888 67.3886 31.3621 66.3947C32.029 65.4008 32.9524 64.8044 34.1258 64.5928C35.2159 64.4005 36.0751 64.6762 36.6971 65.4264C37.3191 66.1767 37.6333 67.4078 37.6269 69.1327L37.5371 82.278L45.3089 80.9057L45.373 68.0939C45.3986 66.151 45.7385 64.6954 46.3925 63.7208C47.053 62.7461 47.9636 62.1561 49.137 61.9445C50.2271 61.7522 51.0863 62.0279 51.7083 62.7781C52.3303 63.5284 52.6445 64.766 52.6381 66.4845L52.5932 79.6169L60.365 78.2446V64.176C60.3906 61.579 59.9738 59.4886 59.121 57.9048C58.2617 56.321 57.1203 55.2116 55.684 54.5704V54.5768Z" fill="#FFD200"/>
<path d="M72.2152 39.6807C71.2597 39.0395 70.0991 38.8343 68.7333 39.078C67.2328 39.3409 66.1107 40.027 65.3604 41.1235C64.6102 42.2264 64.3601 43.4704 64.6038 44.8683C64.8154 46.0482 65.3925 46.9908 66.3415 47.6769C67.2905 48.3694 68.4512 48.5938 69.817 48.3566C71.3175 48.0937 72.446 47.4076 73.2091 46.3047C73.9721 45.2017 74.2222 43.9064 73.9593 42.4252C73.7477 41.2453 73.1706 40.3284 72.2088 39.6872L72.2152 39.6807Z" fill="#FFD200"/>
<path d="M65.2773 77.3789L73.0106 76.0131L73.0875 50.5947L65.3479 51.9541L65.2773 77.3789Z" fill="#FFD200"/>
<path d="M93.8887 49.8702C93.0551 48.934 92.0805 48.2927 90.9519 47.9593C89.631 47.5681 88.169 47.5104 86.5595 47.799C84.8987 48.0939 83.3982 48.7224 82.0645 49.697C80.7307 50.6653 79.6214 51.8836 78.7429 53.352C77.8644 54.8205 77.2616 56.4748 76.941 58.3087C76.6204 60.1491 76.6396 62.0984 77.0051 64.1568C77.4284 66.555 78.2363 68.5043 79.429 70.0112C80.6217 71.5181 82.0132 72.589 83.6034 73.2109C85.1873 73.8394 86.7775 74.0125 88.3549 73.7303C90.0991 73.4226 91.5739 72.7108 92.7666 71.595C93.3373 71.0628 93.8375 70.4601 94.2863 69.7996L94.2607 72.2683L101.628 70.9666L101.737 36.1606L93.9657 37.5329L93.908 49.8637L93.8887 49.8702ZM93.8503 62.2138C93.581 63.3232 93.1129 64.2337 92.4332 64.9455C91.7599 65.6573 90.8878 66.1061 89.8233 66.2985C88.5152 66.5293 87.4187 66.2857 86.5274 65.5675C85.6425 64.8493 85.0718 63.7784 84.8217 62.3549C84.5781 60.9891 84.5973 59.7515 84.8602 58.6422C85.1295 57.5329 85.6105 56.6095 86.3158 55.8785C87.0148 55.1475 87.8676 54.6922 88.8807 54.5127C90.1888 54.2818 91.2918 54.5319 92.1767 55.2693C93.068 56.0003 93.6387 57.084 93.8887 58.5075C94.1324 59.8734 94.1132 61.1109 93.8503 62.2203V62.2138Z" fill="#FFD200"/>
<path d="M122.166 54.4999C122.166 56.4364 121.807 57.9305 121.076 58.9821C120.345 60.0337 119.326 60.675 118.018 60.9058C116.786 61.1238 115.863 60.8481 115.235 60.085C114.606 59.322 114.305 58.1229 114.324 56.4942L114.363 43.3169L106.591 44.6891L106.533 58.7192C106.533 61.3098 106.963 63.4066 107.809 65.0097C108.656 66.6128 109.816 67.7285 111.291 68.3569C112.766 68.9853 114.408 69.1456 116.203 68.825C117.838 68.5365 119.351 67.8247 120.743 66.6897C121.435 66.1254 122.045 65.4521 122.57 64.6634L122.558 67.2861L129.925 65.9844L130.002 40.5596L122.231 41.9318L122.173 54.5063L122.166 54.4999Z" fill="#FFD200"/>
<path d="M140.018 111.655L161.48 107.871L161.544 84.5241L188.039 79.8559L188.142 61.2923L161.601 65.9733L161.633 53.4629L191.919 48.1214L192.015 29.5642L140.274 38.6825L140.018 111.655Z" fill="white"/>
<path d="M219.722 69.475L246.693 64.7171L246.757 46.9999L219.799 51.7514L219.831 43.2038L250.476 37.7982L250.578 19.2346L198.838 28.3593L198.581 101.331L251.502 92.0015L251.604 73.4378L219.684 79.0678L219.722 69.475Z" fill="white"/>
<path d="M354.875 0.843506L354.586 0.894803L281.806 13.7002C266.84 16.3228 256.689 26.7556 256.51 39.4007C256.093 66.1528 288.212 52.5972 288.418 62.671C288.469 64.7486 286.289 66.5889 283.256 67.1211L258.69 71.4302L258.331 90.7761L283.102 86.435C300.389 83.4019 307.815 71.6803 308.058 60.587C308.597 32.7704 275.805 46.8646 275.805 36.5408C275.805 35.0916 277.1 33.8092 278.914 33.495L314.663 27.1019L314.509 80.8947L335.971 77.1115L336.125 23.2673L354.766 19.9329L354.868 0.849917L354.875 0.843506Z" fill="white"/>
<path d="M359.681 62.9198C360.836 61.5283 361.714 60.2779 362.311 59.1686C362.907 58.0593 363.285 57.0141 363.445 56.0201C363.606 55.0262 363.593 54.0259 363.42 53.0192C363.176 51.6534 362.612 50.5056 361.727 49.5886C360.842 48.6716 359.714 48.0176 358.341 47.6457C356.975 47.2673 355.469 47.2225 353.827 47.511C351.756 47.8765 349.967 48.6652 348.466 49.8836C346.966 51.1019 345.901 52.5703 345.267 54.2888L350.095 56.6678C350.538 55.7701 351.083 55.0391 351.73 54.4684C352.378 53.8977 353.09 53.545 353.866 53.4039C354.75 53.25 355.469 53.3462 356.02 53.6925C356.572 54.0387 356.911 54.5645 357.033 55.2571C357.117 55.7124 357.104 56.1869 357.001 56.6742C356.899 57.1615 356.674 57.6938 356.334 58.2773C355.988 58.8544 355.494 59.5662 354.834 60.3998L346.434 70.7171L346.408 75.3212L364.061 72.2112L364.1 66.376L355.635 67.8701L359.681 62.9262V62.9198Z" fill="#FFD200"/>
<path d="M383.657 46.8507C382.702 45.5362 381.522 44.6064 380.124 44.0614C378.726 43.5163 377.162 43.3945 375.437 43.7023C373.667 44.0165 372.122 44.7218 370.801 45.8184C369.48 46.9149 368.415 48.3127 367.594 49.9992C366.78 51.692 366.254 53.5901 366.023 55.6933C365.793 57.803 365.882 60.0024 366.286 62.3108C366.652 64.3756 367.306 66.0684 368.248 67.3829C369.191 68.7039 370.371 69.6337 371.782 70.1723C373.192 70.7173 374.757 70.8328 376.488 70.5314C378.258 70.2172 379.803 69.5118 381.124 68.4153C382.445 67.3188 383.51 65.9209 384.311 64.2345C385.119 62.5481 385.639 60.65 385.882 58.5404C386.126 56.4307 386.043 54.2249 385.632 51.9229C385.267 49.8581 384.606 48.1717 383.651 46.8507H383.657ZM379.175 60.1819C378.957 61.3361 378.598 62.3172 378.091 63.138C377.591 63.9588 376.918 64.4397 376.078 64.5872C375.276 64.7282 374.584 64.5295 373.987 63.9908C373.391 63.4522 372.962 62.4519 372.705 60.9899C372.525 59.9831 372.436 58.861 372.429 57.6234C372.423 56.3858 372.532 55.1931 372.75 54.0389C372.968 52.8847 373.333 51.9036 373.834 51.0829C374.334 50.2621 375.007 49.7812 375.847 49.6337C376.649 49.4926 377.341 49.6914 377.937 50.23C378.534 50.7687 378.963 51.769 379.22 53.231C379.399 54.2377 379.489 55.3599 379.496 56.5974C379.496 57.835 379.393 59.0277 379.175 60.1819Z" fill="#FFD200"/>
<path d="M401.053 55.6229C402.214 54.2314 403.086 52.981 403.682 51.8717C404.278 50.7624 404.657 49.7172 404.811 48.7233C404.971 47.7294 404.958 46.729 404.785 45.7223C404.541 44.3565 403.977 43.2087 403.092 42.2917C402.207 41.3683 401.079 40.7207 399.707 40.3488C398.341 39.9705 396.834 39.9256 395.192 40.2141C393.121 40.5796 391.332 41.3748 389.832 42.5867C388.331 43.805 387.267 45.2734 386.632 46.9919L391.46 49.3709C391.903 48.4732 392.448 47.7422 393.095 47.1715C393.743 46.6008 394.455 46.2481 395.231 46.1071C396.116 45.9532 396.834 46.0493 397.385 46.3956C397.937 46.7419 398.27 47.2677 398.398 47.9602C398.475 48.4155 398.469 48.89 398.366 49.3773C398.264 49.8647 398.039 50.3969 397.699 50.9804C397.36 51.5639 396.859 52.2693 396.205 53.1029L387.805 63.4203L387.78 68.0243L405.433 64.9143L405.471 59.0791L397.007 60.5732L401.053 55.6293V55.6229Z" fill="#FFD200"/>
<path d="M426.287 52.3269C426.043 50.961 425.53 49.826 424.735 48.9283C423.94 48.0306 422.933 47.4086 421.702 47.0688C421.337 46.9662 420.952 46.902 420.554 46.8572L425.325 40.028V35.4304L408.922 38.3224L408.89 44.0101L417.752 42.4455L413.764 48.1589L413.744 52.8014L416.495 52.314C417.534 52.1281 418.323 52.1794 418.874 52.4487C419.426 52.718 419.759 53.2053 419.881 53.9043C419.99 54.5263 419.926 55.0906 419.695 55.5907C419.458 56.0909 419.06 56.5077 418.496 56.8411C417.932 57.1746 417.207 57.4182 416.322 57.5785C415.264 57.7645 414.18 57.7709 413.065 57.5978C411.955 57.4246 410.929 57.072 409.993 56.5462L407.909 62.1441C409.172 62.8623 410.577 63.324 412.128 63.5356C413.68 63.7472 415.277 63.7023 416.918 63.4137C419.035 63.0418 420.856 62.3108 422.375 61.2271C423.901 60.1434 425.011 58.8289 425.703 57.2836C426.396 55.7382 426.595 54.0902 426.287 52.3397V52.3269Z" fill="#FFD200"/>
<path d="M14.7513 95.2864C13.3194 95.5389 12.0568 95.4498 10.9638 95.0192C9.90811 94.6147 9.09117 93.8893 8.51292 92.8428C7.94029 91.8282 7.67561 90.5132 7.71888 88.8979L7.98996 77.8748C8.00318 77.0194 7.81702 76.4288 7.43147 76.103C7.07774 75.7717 6.58266 75.6621 5.94623 75.7743L4.27559 76.0689L4.31826 72.1241L5.9889 71.8295C6.68897 71.706 7.21218 71.4169 7.55853 70.9621C7.9367 70.5017 8.1324 69.8438 8.14562 68.9884L8.45048 57.3195C8.48638 54.918 9.0772 53.0584 10.2229 51.7408C11.3949 50.3858 13.2537 49.4838 15.7994 49.0349L17.8997 48.6646L17.8177 52.6656L16.6721 52.8676C15.3992 53.092 14.4792 53.5496 13.9119 54.2402C13.3447 54.9308 13.0479 55.8526 13.0215 57.0057L12.7588 68.0765C12.7325 69.2295 12.5845 70.1579 12.3148 70.8617C12.077 71.5598 11.6679 72.1241 11.0876 72.5546C10.5335 72.9476 9.75853 73.2975 8.76268 73.6043L8.8133 73.054C10.0506 72.9999 10.9883 73.2939 11.6265 73.9361C12.2647 74.5782 12.5697 75.6564 12.5414 77.1707L12.3125 87.5957C12.2674 89.0146 12.5555 89.9973 13.1769 90.544C13.8038 91.1224 14.6424 91.3191 15.6925 91.1339L16.9336 90.9151L16.8516 94.9161L14.7513 95.2864Z" fill="#FFD200"/>
<path d="M430.101 71.3893L430.183 67.3883L431.328 67.1863C432.633 66.9562 433.55 66.4828 434.08 65.766C434.647 65.0753 434.947 64.1694 434.979 63.0482L435.241 51.9774C435.3 50.8187 435.448 49.8903 435.685 49.1922C435.955 48.4884 436.364 47.9241 436.913 47.4993C437.493 47.0689 438.268 46.7189 439.238 46.4495L439.187 46.9998C437.95 47.0539 437.012 46.7599 436.374 46.1178C435.735 45.4757 435.431 44.3975 435.459 42.8832L435.688 32.4581C435.733 31.0393 435.445 30.0566 434.823 29.5099C434.196 28.9314 433.358 28.7348 432.308 28.9199L431.067 29.1388L431.149 25.1378L433.249 24.7675C434.681 24.515 435.927 24.6069 436.989 25.0431C438.076 25.442 438.909 26.1646 439.487 27.211C440.06 28.2256 440.325 29.5406 440.281 31.156L440.01 42.1791C439.997 43.0345 440.167 43.6279 440.521 43.9593C440.907 44.285 441.418 44.3918 442.054 44.2796L443.725 43.985L443.682 47.9298L442.011 48.2244C441.311 48.3478 440.772 48.6398 440.394 49.1002C440.048 49.555 439.868 50.2101 439.855 51.0655L439.55 62.7344C439.482 65.1415 438.875 67.0039 437.73 68.3215C436.589 69.6709 434.746 70.5701 432.201 71.0189L430.101 71.3893Z" fill="#FFD200"/>
</svg>
